<svg aria-hidden="true" style="position: absolute; width: 0; height: 0; overflow: hidden;" version="1.1" xmlns="http://www.w3.org/2000/svg" xmlns:xlink="http://www.w3.org/1999/xlink">
<defs>
<symbol id="icon-arrow-narrow-left" viewBox="0 0 32 32">
<path d="M27.467 16c0 0.442-0.358 0.8-0.8 0.8h-21.333c-0.442 0-0.8-0.358-0.8-0.8s0.358-0.8 0.8-0.8h21.333c0.442 0 0.8 0.358 0.8 0.8z"></path>
<path d="M13.899 24.566c-0.312 0.312-0.819 0.312-1.131 0l-8-8c-0.312-0.312-0.312-0.819 0-1.131l8-8c0.312-0.312 0.819-0.312 1.131 0s0.312 0.819 0 1.131l-7.434 7.434 7.434 7.434c0.312 0.312 0.312 0.819 0 1.131z"></path>
</symbol>
<symbol id="icon-arrow-narrow-right1" viewBox="0 0 32 32">
<path d="M4.533 16c0-0.442 0.358-0.8 0.8-0.8h21.333c0.442 0 0.8 0.358 0.8 0.8s-0.358 0.8-0.8 0.8h-21.333c-0.442 0-0.8-0.358-0.8-0.8z"></path>
<path d="M18.101 7.434c0.312-0.312 0.819-0.312 1.131 0l8 8c0.312 0.312 0.312 0.819 0 1.131l-8 8c-0.312 0.312-0.819 0.312-1.131 0s-0.312-0.819 0-1.131l7.434-7.434-7.434-7.434c-0.312-0.312-0.312-0.819 0-1.131z"></path>
</symbol>
<symbol id="icon-close" viewBox="0 0 32 32">
<path fill="#fafafa" style="fill: var(--color1, #fafafa)" d="M24.808 7.192c0.446 0.446 0.446 1.17 0 1.616l-16 16c-0.446 0.446-1.17 0.446-1.616 0s-0.446-1.17 0-1.616l16-16c0.446-0.446 1.17-0.446 1.616 0z"></path>
<path fill="#fafafa" style="fill: var(--color1, #fafafa)" d="M7.192 7.192c0.446-0.446 1.17-0.446 1.616 0l16 16c0.446 0.446 0.446 1.17 0 1.616s-1.17 0.446-1.616 0l-16-16c-0.446-0.446-0.446-1.17 0-1.616z"></path>
</symbol>
<symbol id="icon-arrow-down" viewBox="0 0 55 32">
<path fill="#fafafa" style="fill: var(--color1, #fafafa)" d="M3.625 6.662l6.465-6.465 17.339 17.339 17.339-17.339 6.465 6.465-23.804 23.804-23.804-23.804z"></path>
</symbol>
<symbol id="icon-arrow-up" viewBox="0 0 55 32">
<path fill="#fafafa" style="fill: var(--color1, #fafafa)" d="M51.232 25.338l-6.465 6.465-17.339-17.339-17.339 17.339-6.465-6.465 23.804-23.804 23.804 23.804z"></path>
</symbol>
<symbol id="icon-modal" viewBox="0 0 64 32">
<path fill="#fafafa" style="fill: var(--color1, #fafafa)" d="M1.333 5.111c0-1.473 1.194-2.667 2.667-2.667h56c1.473 0 2.667 1.194 2.667 2.667s-1.194 2.667-2.667 2.667h-56c-1.473 0-2.667-1.194-2.667-2.667zM1.333 26.889c0-1.473 1.194-2.667 2.667-2.667h56c1.473 0 2.667 1.194 2.667 2.667s-1.194 2.667-2.667 2.667h-56c-1.473 0-2.667-1.194-2.667-2.667z"></path>
</symbol>
</defs>
</svg>